<?xml version="1.0" encoding="UTF-8" standalone="no"?>
<svg
   xmlns:dc="http://purl.org/dc/elements/1.1/"
   xmlns:cc="http://creativecommons.org/ns#"
   xmlns:rdf="http://www.w3.org/1999/02/22-rdf-syntax-ns#"
   xmlns:svg="http://www.w3.org/2000/svg"
   xmlns="http://www.w3.org/2000/svg"
   viewBox="0 0 480 365.65332"
   height="365.65332"
   width="480"
   xml:space="preserve"
   id="svg2"
   version="1.1"><metadata
     id="metadata8"><rdf:RDF><cc:Work
         rdf:about=""><dc:format>image/svg+xml</dc:format><dc:type
           rdf:resource="http://purl.org/dc/dcmitype/StillImage" /></cc:Work></rdf:RDF></metadata><defs
     id="defs6" /><g
     transform="matrix(1.3333333,0,0,-1.3333333,0,365.65333)"
     id="g10"><g
       transform="scale(0.1)"
       id="g12"><path
         id="path14"
         style="fill:#231f20;fill-opacity:1;fill-rule:nonzero;stroke:none"
         d="m 167.074,2624.97 c -23.765,0 -43.097,-19.33 -43.097,-43.09 V 160.512 c 0,-23.77 19.332,-43.09 43.097,-43.09 H 3432.92 c 23.77,0 43.1,19.32 43.1,43.09 V 2581.88 c 0,23.76 -19.33,43.09 -43.1,43.09 z M 3432.92,91.4609 H 167.074 c -38.078,0 -69.0584,30.9691 -69.0584,69.0511 V 2581.88 c 0,38.07 30.9804,69.05 69.0584,69.05 H 3432.92 c 38.08,0 69.07,-30.98 69.07,-69.05 V 160.512 c 0,-38.082 -30.99,-69.0511 -69.07,-69.0511" /><path
         id="path16"
         style="fill:#231f20;fill-opacity:1;fill-rule:nonzero;stroke:none"
         d="m 125.117,2716.42 c -54.6795,0 -99.1561,-44.49 -99.1561,-99.17 V 125.129 c 0,-54.6798 44.4766,-99.1681 99.1561,-99.1681 H 3474.89 c 54.67,0 99.15,44.4883 99.15,99.1681 V 2617.25 c 0,54.68 -44.48,99.17 -99.15,99.17 z M 3474.89,0 H 125.117 C 56.125,0 0,56.1484 0,125.129 V 2617.25 c 0,68.99 56.125,125.13 125.117,125.13 H 3474.89 c 68.98,0 125.11,-56.14 125.11,-125.13 V 125.129 C 3600,56.1484 3543.87,0 3474.89,0" /><path
         id="path18"
         style="fill:#231f20;fill-opacity:1;fill-rule:nonzero;stroke:none"
         d="M 1813.17,104.441 H 1793.7 V 2624.08 h 19.47 V 104.441" /><path
         id="path20"
         style="fill:#231f20;fill-opacity:1;fill-rule:nonzero;stroke:none"
         d="M 968.672,104.441 H 949.203 V 2624.08 h 19.469 V 104.441" /><path
         id="path22"
         style="fill:#231f20;fill-opacity:1;fill-rule:nonzero;stroke:none"
         d="M 2657.67,104.441 H 2638.2 V 2624.08 h 19.47 V 104.441" /><path
         id="path24"
         style="fill:#231f20;fill-opacity:1;fill-rule:nonzero;stroke:none"
         d="M 3478.7,939.199 H 114.434 v 19.473 H 3478.7 v -19.473" /><path
         id="path26"
         style="fill:#231f20;fill-opacity:1;fill-rule:nonzero;stroke:none"
         d="M 3478.7,1783.71 H 114.434 v 19.47 H 3478.7 v -19.47" /><path
         id="path28"
         style="fill:#231f20;fill-opacity:1;fill-rule:nonzero;stroke:none"
         d="m 2225.68,2590.67 c -5.37,0 -9.73,4.36 -9.73,9.73 v 3.25 c 0,5.37 4.36,9.73 9.73,9.73 5.38,0 9.73,-4.36 9.73,-9.73 v -3.25 c 0,-5.37 -4.35,-9.73 -9.73,-9.73" /><path
         id="path30"
         style="fill:#231f20;fill-opacity:1;fill-rule:nonzero;stroke:none"
         d="m 2225.68,2505.63 c -5.37,0 -9.73,4.36 -9.73,9.73 v 6.55 c 0,5.37 4.36,9.73 9.73,9.73 5.38,0 9.73,-4.36 9.73,-9.73 v -6.55 c 0,-5.37 -4.35,-9.73 -9.73,-9.73 z m 0,-85.05 c -5.37,0 -9.73,4.36 -9.73,9.74 v 6.54 c 0,5.37 4.36,9.73 9.73,9.73 5.38,0 9.73,-4.36 9.73,-9.73 v -6.54 c 0,-5.38 -4.35,-9.74 -9.73,-9.74 z m 0,-85.05 c -5.37,0 -9.73,4.36 -9.73,9.73 v 6.54 c 0,5.38 4.36,9.74 9.73,9.74 5.38,0 9.73,-4.36 9.73,-9.74 v -6.54 c 0,-5.37 -4.35,-9.73 -9.73,-9.73 z m 0,-85.04 c -5.37,0 -9.73,4.36 -9.73,9.73 v 6.55 c 0,5.37 4.36,9.73 9.73,9.73 5.38,0 9.73,-4.36 9.73,-9.73 v -6.55 c 0,-5.37 -4.35,-9.73 -9.73,-9.73 z m 0,-85.05 c -5.37,0 -9.73,4.36 -9.73,9.74 v 6.53 c 0,5.38 4.36,9.74 9.73,9.74 5.38,0 9.73,-4.36 9.73,-9.74 v -6.53 c 0,-5.38 -4.35,-9.74 -9.73,-9.74 z m 0,-85.05 c -5.37,0 -9.73,4.36 -9.73,9.73 v 6.54 c 0,5.38 4.36,9.73 9.73,9.73 5.38,0 9.73,-4.35 9.73,-9.73 v -6.54 c 0,-5.37 -4.35,-9.73 -9.73,-9.73 z m 0,-85.05 c -5.37,0 -9.73,4.36 -9.73,9.73 v 6.54 c 0,5.37 4.36,9.74 9.73,9.74 5.38,0 9.73,-4.37 9.73,-9.74 v -6.54 c 0,-5.37 -4.35,-9.73 -9.73,-9.73 z m 0,-85.04 c -5.37,0 -9.73,4.36 -9.73,9.73 v 6.54 c 0,5.38 4.36,9.74 9.73,9.74 5.38,0 9.73,-4.36 9.73,-9.74 v -6.54 c 0,-5.37 -4.35,-9.73 -9.73,-9.73 z m 0,-85.05 c -5.37,0 -9.73,4.36 -9.73,9.73 v 6.54 c 0,5.38 4.36,9.74 9.73,9.74 5.38,0 9.73,-4.36 9.73,-9.74 v -6.54 c 0,-5.37 -4.35,-9.73 -9.73,-9.73 z m 0,-85.06 c -5.37,0 -9.73,4.36 -9.73,9.74 v 6.54 c 0,5.37 4.36,9.73 9.73,9.73 5.38,0 9.73,-4.36 9.73,-9.73 v -6.54 c 0,-5.38 -4.35,-9.74 -9.73,-9.74 z m 0,-85.05 c -5.37,0 -9.73,4.37 -9.73,9.74 v 6.54 c 0,5.38 4.36,9.74 9.73,9.74 5.38,0 9.73,-4.36 9.73,-9.74 v -6.54 c 0,-5.37 -4.35,-9.74 -9.73,-9.74 z m 0,-85.03 c -5.37,0 -9.73,4.36 -9.73,9.73 v 6.54 c 0,5.38 4.36,9.74 9.73,9.74 5.38,0 9.73,-4.36 9.73,-9.74 v -6.54 c 0,-5.37 -4.35,-9.73 -9.73,-9.73 z m 0,-85.06 c -5.37,0 -9.73,4.36 -9.73,9.74 v 6.54 c 0,5.37 4.36,9.73 9.73,9.73 5.38,0 9.73,-4.36 9.73,-9.73 v -6.54 c 0,-5.38 -4.35,-9.74 -9.73,-9.74 z m 0,-85.05 c -5.37,0 -9.73,4.36 -9.73,9.74 v 6.54 c 0,5.37 4.36,9.73 9.73,9.73 5.38,0 9.73,-4.36 9.73,-9.73 v -6.54 c 0,-5.38 -4.35,-9.74 -9.73,-9.74 z m 0,-85.05 c -5.37,0 -9.73,4.36 -9.73,9.74 v 6.53 c 0,5.38 4.36,9.74 9.73,9.74 5.38,0 9.73,-4.36 9.73,-9.74 v -6.53 c 0,-5.38 -4.35,-9.74 -9.73,-9.74 z m 0,-85.03 c -5.37,0 -9.73,4.35 -9.73,9.73 v 6.53 c 0,5.39 4.36,9.74 9.73,9.74 5.38,0 9.73,-4.35 9.73,-9.74 v -6.53 c 0,-5.38 -4.35,-9.73 -9.73,-9.73 z m 0,-85.05 c -5.37,0 -9.73,4.35 -9.73,9.72 v 6.55 c 0,5.37 4.36,9.73 9.73,9.73 5.38,0 9.73,-4.36 9.73,-9.73 v -6.55 c 0,-5.37 -4.35,-9.72 -9.73,-9.72 z m 0,-85.06 c -5.37,0 -9.73,4.36 -9.73,9.73 v 6.55 c 0,5.37 4.36,9.73 9.73,9.73 5.38,0 9.73,-4.36 9.73,-9.73 v -6.55 c 0,-5.37 -4.35,-9.73 -9.73,-9.73 z m 0,-85.048 c -5.37,0 -9.73,4.359 -9.73,9.738 v 6.539 c 0,5.371 4.36,9.721 9.73,9.721 5.38,0 9.73,-4.35 9.73,-9.721 V 984.5 c 0,-5.379 -4.35,-9.738 -9.73,-9.738 z m 0,-85.051 c -5.37,0 -9.73,4.359 -9.73,9.738 V 906 c 0,5.371 4.36,9.73 9.73,9.73 5.38,0 9.73,-4.359 9.73,-9.73 v -6.551 c 0,-5.379 -4.35,-9.738 -9.73,-9.738 z m 0,-85.039 c -5.37,0 -9.73,4.359 -9.73,9.738 v 6.531 c 0,5.379 4.36,9.739 9.73,9.739 5.38,0 9.73,-4.36 9.73,-9.739 v -6.531 c 0,-5.379 -4.35,-9.738 -9.73,-9.738 z m 0,-85.051 c -5.37,0 -9.73,4.359 -9.73,9.731 v 6.539 c 0,5.371 4.36,9.738 9.73,9.738 5.38,0 9.73,-4.367 9.73,-9.738 v -6.539 c 0,-5.372 -4.35,-9.731 -9.73,-9.731 z m 0,-85.062 c -5.37,0 -9.73,4.371 -9.73,9.742 v 6.539 c 0,5.371 4.36,9.742 9.73,9.742 5.38,0 9.73,-4.371 9.73,-9.742 v -6.539 c 0,-5.371 -4.35,-9.742 -9.73,-9.742 z m 0,-85.047 c -5.37,0 -9.73,4.367 -9.73,9.738 v 6.551 c 0,5.371 4.36,9.738 9.73,9.738 5.38,0 9.73,-4.367 9.73,-9.738 v -6.551 c 0,-5.371 -4.35,-9.738 -9.73,-9.738 z m 0,-85.032 c -5.37,0 -9.73,4.36 -9.73,9.731 v 6.539 c 0,5.379 4.36,9.742 9.73,9.742 5.38,0 9.73,-4.363 9.73,-9.742 v -6.539 c 0,-5.371 -4.35,-9.731 -9.73,-9.731 z m 0,-85.05 c -5.37,0 -9.73,4.351 -9.73,9.73 v 6.539 c 0,5.383 4.36,9.731 9.73,9.731 5.38,0 9.73,-4.348 9.73,-9.731 v -6.539 c 0,-5.379 -4.35,-9.73 -9.73,-9.73 z m 0,-85.051 c -5.37,0 -9.73,4.351 -9.73,9.723 v 6.546 c 0,5.383 4.36,9.731 9.73,9.731 5.38,0 9.73,-4.348 9.73,-9.731 v -6.546 c 0,-5.372 -4.35,-9.723 -9.73,-9.723 z m 0,-85.059 c -5.37,0 -9.73,4.36 -9.73,9.739 v 6.543 c 0,5.367 4.36,9.738 9.73,9.738 5.38,0 9.73,-4.371 9.73,-9.738 v -6.543 c 0,-5.379 -4.35,-9.739 -9.73,-9.739" /><path
         id="path32"
         style="fill:#231f20;fill-opacity:1;fill-rule:nonzero;stroke:none"
         d="m 2225.68,127.57 c -5.37,0 -9.73,4.36 -9.73,9.731 v 3.25 c 0,5.371 4.36,9.738 9.73,9.738 5.38,0 9.73,-4.367 9.73,-9.738 v -3.25 c 0,-5.371 -4.35,-9.731 -9.73,-9.731" /><path
         id="path34"
         style="fill:#231f20;fill-opacity:1;fill-rule:nonzero;stroke:none"
         d="m 1381.19,2590.67 c -5.38,0 -9.74,4.36 -9.74,9.73 v 3.25 c 0,5.37 4.36,9.73 9.74,9.73 5.37,0 9.73,-4.36 9.73,-9.73 v -3.25 c 0,-5.37 -4.36,-9.73 -9.73,-9.73" /><path
         id="path36"
         style="fill:#231f20;fill-opacity:1;fill-rule:nonzero;stroke:none"
         d="m 1381.19,2505.63 c -5.38,0 -9.74,4.36 -9.74,9.73 v 6.55 c 0,5.37 4.36,9.73 9.74,9.73 5.37,0 9.73,-4.36 9.73,-9.73 v -6.55 c 0,-5.37 -4.36,-9.73 -9.73,-9.73 z m 0,-85.05 c -5.38,0 -9.74,4.36 -9.74,9.74 v 6.54 c 0,5.37 4.36,9.73 9.74,9.73 5.37,0 9.73,-4.36 9.73,-9.73 v -6.54 c 0,-5.38 -4.36,-9.74 -9.73,-9.74 z m 0,-85.05 c -5.38,0 -9.74,4.36 -9.74,9.73 v 6.54 c 0,5.38 4.36,9.74 9.74,9.74 5.37,0 9.73,-4.36 9.73,-9.74 v -6.54 c 0,-5.37 -4.36,-9.73 -9.73,-9.73 z m 0,-85.04 c -5.38,0 -9.74,4.36 -9.74,9.73 v 6.55 c 0,5.37 4.36,9.73 9.74,9.73 5.37,0 9.73,-4.36 9.73,-9.73 v -6.55 c 0,-5.37 -4.36,-9.73 -9.73,-9.73 z m 0,-85.05 c -5.38,0 -9.74,4.36 -9.74,9.74 v 6.53 c 0,5.38 4.36,9.74 9.74,9.74 5.37,0 9.73,-4.36 9.73,-9.74 v -6.53 c 0,-5.38 -4.36,-9.74 -9.73,-9.74 z m 0,-85.05 c -5.38,0 -9.74,4.36 -9.74,9.73 v 6.54 c 0,5.38 4.36,9.73 9.74,9.73 5.37,0 9.73,-4.35 9.73,-9.73 v -6.54 c 0,-5.37 -4.36,-9.73 -9.73,-9.73 z m 0,-85.05 c -5.38,0 -9.74,4.36 -9.74,9.73 v 6.54 c 0,5.37 4.36,9.74 9.74,9.74 5.37,0 9.73,-4.37 9.73,-9.74 v -6.54 c 0,-5.37 -4.36,-9.73 -9.73,-9.73 z m 0,-85.04 c -5.38,0 -9.74,4.36 -9.74,9.73 v 6.54 c 0,5.38 4.36,9.74 9.74,9.74 5.37,0 9.73,-4.36 9.73,-9.74 v -6.54 c 0,-5.37 -4.36,-9.73 -9.73,-9.73 z m 0,-85.05 c -5.38,0 -9.74,4.36 -9.74,9.73 v 6.54 c 0,5.38 4.36,9.74 9.74,9.74 5.37,0 9.73,-4.36 9.73,-9.74 v -6.54 c 0,-5.37 -4.36,-9.73 -9.73,-9.73 z m 0,-85.06 c -5.38,0 -9.74,4.36 -9.74,9.74 v 6.54 c 0,5.37 4.36,9.73 9.74,9.73 5.37,0 9.73,-4.36 9.73,-9.73 v -6.54 c 0,-5.38 -4.36,-9.74 -9.73,-9.74 z m 0,-85.05 c -5.38,0 -9.74,4.37 -9.74,9.74 v 6.54 c 0,5.38 4.36,9.74 9.74,9.74 5.37,0 9.73,-4.36 9.73,-9.74 v -6.54 c 0,-5.37 -4.36,-9.74 -9.73,-9.74 z m 0,-85.03 c -5.38,0 -9.74,4.36 -9.74,9.73 v 6.54 c 0,5.38 4.36,9.74 9.74,9.74 5.37,0 9.73,-4.36 9.73,-9.74 v -6.54 c 0,-5.37 -4.36,-9.73 -9.73,-9.73 z m 0,-85.06 c -5.38,0 -9.74,4.36 -9.74,9.74 v 6.54 c 0,5.37 4.36,9.73 9.74,9.73 5.37,0 9.73,-4.36 9.73,-9.73 v -6.54 c 0,-5.38 -4.36,-9.74 -9.73,-9.74 z m 0,-85.05 c -5.38,0 -9.74,4.36 -9.74,9.74 v 6.54 c 0,5.37 4.36,9.73 9.74,9.73 5.37,0 9.73,-4.36 9.73,-9.73 v -6.54 c 0,-5.38 -4.36,-9.74 -9.73,-9.74 z m 0,-85.05 c -5.38,0 -9.74,4.36 -9.74,9.74 v 6.53 c 0,5.38 4.36,9.74 9.74,9.74 5.37,0 9.73,-4.36 9.73,-9.74 v -6.53 c 0,-5.38 -4.36,-9.74 -9.73,-9.74 z m 0,-85.03 c -5.38,0 -9.74,4.35 -9.74,9.73 v 6.53 c 0,5.39 4.36,9.74 9.74,9.74 5.37,0 9.73,-4.35 9.73,-9.74 v -6.53 c 0,-5.38 -4.36,-9.73 -9.73,-9.73 z m 0,-85.05 c -5.38,0 -9.74,4.35 -9.74,9.72 v 6.55 c 0,5.37 4.36,9.73 9.74,9.73 5.37,0 9.73,-4.36 9.73,-9.73 v -6.55 c 0,-5.37 -4.36,-9.72 -9.73,-9.72 z m 0,-85.06 c -5.38,0 -9.74,4.36 -9.74,9.73 v 6.55 c 0,5.37 4.36,9.73 9.74,9.73 5.37,0 9.73,-4.36 9.73,-9.73 v -6.55 c 0,-5.37 -4.36,-9.73 -9.73,-9.73 z m 0,-85.048 c -5.38,0 -9.74,4.359 -9.74,9.738 v 6.539 c 0,5.371 4.36,9.721 9.74,9.721 5.37,0 9.73,-4.35 9.73,-9.721 V 984.5 c 0,-5.379 -4.36,-9.738 -9.73,-9.738 z m 0,-85.051 c -5.38,0 -9.74,4.359 -9.74,9.738 V 906 c 0,5.371 4.36,9.73 9.74,9.73 5.37,0 9.73,-4.359 9.73,-9.73 v -6.551 c 0,-5.379 -4.36,-9.738 -9.73,-9.738 z m 0,-85.039 c -5.38,0 -9.74,4.359 -9.74,9.738 v 6.531 c 0,5.379 4.36,9.739 9.74,9.739 5.37,0 9.73,-4.36 9.73,-9.739 v -6.531 c 0,-5.379 -4.36,-9.738 -9.73,-9.738 z m 0,-85.051 c -5.38,0 -9.74,4.359 -9.74,9.731 v 6.539 c 0,5.371 4.36,9.738 9.74,9.738 5.37,0 9.73,-4.367 9.73,-9.738 v -6.539 c 0,-5.372 -4.36,-9.731 -9.73,-9.731 z m 0,-85.062 c -5.38,0 -9.74,4.371 -9.74,9.742 v 6.539 c 0,5.371 4.36,9.742 9.74,9.742 5.37,0 9.73,-4.371 9.73,-9.742 v -6.539 c 0,-5.371 -4.36,-9.742 -9.73,-9.742 z m 0,-85.047 c -5.38,0 -9.74,4.367 -9.74,9.738 v 6.551 c 0,5.371 4.36,9.738 9.74,9.738 5.37,0 9.73,-4.367 9.73,-9.738 v -6.551 c 0,-5.371 -4.36,-9.738 -9.73,-9.738 z m 0,-85.032 c -5.38,0 -9.74,4.36 -9.74,9.731 v 6.539 c 0,5.379 4.36,9.742 9.74,9.742 5.37,0 9.73,-4.363 9.73,-9.742 v -6.539 c 0,-5.371 -4.36,-9.731 -9.73,-9.731 z m 0,-85.05 c -5.38,0 -9.74,4.351 -9.74,9.73 v 6.539 c 0,5.383 4.36,9.731 9.74,9.731 5.37,0 9.73,-4.348 9.73,-9.731 v -6.539 c 0,-5.379 -4.36,-9.73 -9.73,-9.73 z m 0,-85.051 c -5.38,0 -9.74,4.351 -9.74,9.723 v 6.546 c 0,5.383 4.36,9.731 9.74,9.731 5.37,0 9.73,-4.348 9.73,-9.731 v -6.546 c 0,-5.372 -4.36,-9.723 -9.73,-9.723 z m 0,-85.059 c -5.38,0 -9.74,4.36 -9.74,9.739 v 6.543 c 0,5.367 4.36,9.738 9.74,9.738 5.37,0 9.73,-4.371 9.73,-9.738 v -6.543 c 0,-5.379 -4.36,-9.739 -9.73,-9.739" /><path
         id="path38"
         style="fill:#231f20;fill-opacity:1;fill-rule:nonzero;stroke:none"
         d="m 1381.19,127.57 c -5.38,0 -9.74,4.36 -9.74,9.731 v 3.25 c 0,5.371 4.36,9.738 9.74,9.738 5.37,0 9.73,-4.367 9.73,-9.738 v -3.25 c 0,-5.371 -4.36,-9.731 -9.73,-9.731" /><path
         id="path40"
         style="fill:#231f20;fill-opacity:1;fill-rule:nonzero;stroke:none"
         d="m 535.617,2590.67 c -5.371,0 -9.73,4.36 -9.73,9.73 v 3.25 c 0,5.37 4.359,9.73 9.73,9.73 5.379,0 9.738,-4.36 9.738,-9.73 v -3.25 c 0,-5.37 -4.359,-9.73 -9.738,-9.73" /><path
         id="path42"
         style="fill:#231f20;fill-opacity:1;fill-rule:nonzero;stroke:none"
         d="m 535.617,2505.63 c -5.371,0 -9.73,4.36 -9.73,9.73 v 6.55 c 0,5.37 4.359,9.73 9.73,9.73 5.379,0 9.738,-4.36 9.738,-9.73 v -6.55 c 0,-5.37 -4.359,-9.73 -9.738,-9.73 z m 0,-85.05 c -5.371,0 -9.73,4.36 -9.73,9.74 v 6.54 c 0,5.37 4.359,9.73 9.73,9.73 5.379,0 9.738,-4.36 9.738,-9.73 v -6.54 c 0,-5.38 -4.359,-9.74 -9.738,-9.74 z m 0,-85.05 c -5.371,0 -9.73,4.36 -9.73,9.73 v 6.54 c 0,5.38 4.359,9.74 9.73,9.74 5.379,0 9.738,-4.36 9.738,-9.74 v -6.54 c 0,-5.37 -4.359,-9.73 -9.738,-9.73 z m 0,-85.04 c -5.371,0 -9.73,4.36 -9.73,9.73 v 6.55 c 0,5.37 4.359,9.73 9.73,9.73 5.379,0 9.738,-4.36 9.738,-9.73 v -6.55 c 0,-5.37 -4.359,-9.73 -9.738,-9.73 z m 0,-85.05 c -5.371,0 -9.73,4.36 -9.73,9.74 v 6.53 c 0,5.38 4.359,9.74 9.73,9.74 5.379,0 9.738,-4.36 9.738,-9.74 v -6.53 c 0,-5.38 -4.359,-9.74 -9.738,-9.74 z m 0,-85.05 c -5.371,0 -9.73,4.36 -9.73,9.73 v 6.54 c 0,5.38 4.359,9.73 9.73,9.73 5.379,0 9.738,-4.35 9.738,-9.73 v -6.54 c 0,-5.37 -4.359,-9.73 -9.738,-9.73 z m 0,-85.05 c -5.371,0 -9.73,4.36 -9.73,9.73 v 6.54 c 0,5.37 4.359,9.74 9.73,9.74 5.379,0 9.738,-4.37 9.738,-9.74 v -6.54 c 0,-5.37 -4.359,-9.73 -9.738,-9.73 z m 0,-85.04 c -5.371,0 -9.73,4.36 -9.73,9.73 v 6.54 c 0,5.38 4.359,9.74 9.73,9.74 5.379,0 9.738,-4.36 9.738,-9.74 v -6.54 c 0,-5.37 -4.359,-9.73 -9.738,-9.73 z m 0,-85.05 c -5.371,0 -9.73,4.36 -9.73,9.73 v 6.54 c 0,5.38 4.359,9.74 9.73,9.74 5.379,0 9.738,-4.36 9.738,-9.74 v -6.54 c 0,-5.37 -4.359,-9.73 -9.738,-9.73 z m 0,-85.06 c -5.371,0 -9.73,4.36 -9.73,9.74 v 6.54 c 0,5.37 4.359,9.73 9.73,9.73 5.379,0 9.738,-4.36 9.738,-9.73 v -6.54 c 0,-5.38 -4.359,-9.74 -9.738,-9.74 z m 0,-85.05 c -5.371,0 -9.73,4.37 -9.73,9.74 v 6.54 c 0,5.38 4.359,9.74 9.73,9.74 5.379,0 9.738,-4.36 9.738,-9.74 v -6.54 c 0,-5.37 -4.359,-9.74 -9.738,-9.74 z m 0,-85.03 c -5.371,0 -9.73,4.36 -9.73,9.73 v 6.54 c 0,5.38 4.359,9.74 9.73,9.74 5.379,0 9.738,-4.36 9.738,-9.74 v -6.54 c 0,-5.37 -4.359,-9.73 -9.738,-9.73 z m 0,-85.06 c -5.371,0 -9.73,4.36 -9.73,9.74 v 6.54 c 0,5.37 4.359,9.73 9.73,9.73 5.379,0 9.738,-4.36 9.738,-9.73 v -6.54 c 0,-5.38 -4.359,-9.74 -9.738,-9.74 z m 0,-85.05 c -5.371,0 -9.73,4.36 -9.73,9.74 v 6.54 c 0,5.37 4.359,9.73 9.73,9.73 5.379,0 9.738,-4.36 9.738,-9.73 v -6.54 c 0,-5.38 -4.359,-9.74 -9.738,-9.74 z m 0,-85.05 c -5.371,0 -9.73,4.36 -9.73,9.74 v 6.53 c 0,5.38 4.359,9.74 9.73,9.74 5.379,0 9.738,-4.36 9.738,-9.74 v -6.53 c 0,-5.38 -4.359,-9.74 -9.738,-9.74 z m 0,-85.03 c -5.371,0 -9.73,4.35 -9.73,9.73 v 6.53 c 0,5.39 4.359,9.74 9.73,9.74 5.379,0 9.738,-4.35 9.738,-9.74 v -6.53 c 0,-5.38 -4.359,-9.73 -9.738,-9.73 z m 0,-85.05 c -5.371,0 -9.73,4.35 -9.73,9.72 v 6.55 c 0,5.37 4.359,9.73 9.73,9.73 5.379,0 9.738,-4.36 9.738,-9.73 v -6.55 c 0,-5.37 -4.359,-9.72 -9.738,-9.72 z m 0,-85.06 c -5.371,0 -9.73,4.36 -9.73,9.73 v 6.55 c 0,5.37 4.359,9.73 9.73,9.73 5.379,0 9.738,-4.36 9.738,-9.73 v -6.55 c 0,-5.37 -4.359,-9.73 -9.738,-9.73 z m 0,-85.048 c -5.371,0 -9.73,4.359 -9.73,9.738 v 6.539 c 0,5.371 4.359,9.721 9.73,9.721 5.379,0 9.738,-4.35 9.738,-9.721 V 984.5 c 0,-5.379 -4.359,-9.738 -9.738,-9.738 z m 0,-85.051 c -5.371,0 -9.73,4.359 -9.73,9.738 V 906 c 0,5.371 4.359,9.73 9.73,9.73 5.379,0 9.738,-4.359 9.738,-9.73 v -6.551 c 0,-5.379 -4.359,-9.738 -9.738,-9.738 z m 0,-85.039 c -5.371,0 -9.73,4.359 -9.73,9.738 v 6.531 c 0,5.379 4.359,9.739 9.73,9.739 5.379,0 9.738,-4.36 9.738,-9.739 v -6.531 c 0,-5.379 -4.359,-9.738 -9.738,-9.738 z m 0,-85.051 c -5.371,0 -9.73,4.359 -9.73,9.731 v 6.539 c 0,5.371 4.359,9.738 9.73,9.738 5.379,0 9.738,-4.367 9.738,-9.738 v -6.539 c 0,-5.372 -4.359,-9.731 -9.738,-9.731 z m 0,-85.062 c -5.371,0 -9.73,4.371 -9.73,9.742 v 6.539 c 0,5.371 4.359,9.742 9.73,9.742 5.379,0 9.738,-4.371 9.738,-9.742 v -6.539 c 0,-5.371 -4.359,-9.742 -9.738,-9.742 z m 0,-85.047 c -5.371,0 -9.73,4.367 -9.73,9.738 v 6.551 c 0,5.371 4.359,9.738 9.73,9.738 5.379,0 9.738,-4.367 9.738,-9.738 v -6.551 c 0,-5.371 -4.359,-9.738 -9.738,-9.738 z m 0,-85.032 c -5.371,0 -9.73,4.36 -9.73,9.731 v 6.539 c 0,5.379 4.359,9.742 9.73,9.742 5.379,0 9.738,-4.363 9.738,-9.742 v -6.539 c 0,-5.371 -4.359,-9.731 -9.738,-9.731 z m 0,-85.05 c -5.371,0 -9.73,4.351 -9.73,9.73 v 6.539 c 0,5.383 4.359,9.731 9.73,9.731 5.379,0 9.738,-4.348 9.738,-9.731 v -6.539 c 0,-5.379 -4.359,-9.73 -9.738,-9.73 z m 0,-85.051 c -5.371,0 -9.73,4.351 -9.73,9.723 v 6.546 c 0,5.383 4.359,9.731 9.73,9.731 5.379,0 9.738,-4.348 9.738,-9.731 v -6.546 c 0,-5.372 -4.359,-9.723 -9.738,-9.723 z m 0,-85.059 c -5.371,0 -9.73,4.36 -9.73,9.739 v 6.543 c 0,5.367 4.359,9.738 9.73,9.738 5.379,0 9.738,-4.371 9.738,-9.738 v -6.543 c 0,-5.379 -4.359,-9.739 -9.738,-9.739" /><path
         id="path44"
         style="fill:#231f20;fill-opacity:1;fill-rule:nonzero;stroke:none"
         d="m 535.617,127.57 c -5.371,0 -9.73,4.36 -9.73,9.731 v 3.25 c 0,5.371 4.359,9.738 9.73,9.738 5.379,0 9.738,-4.367 9.738,-9.738 v -3.25 c 0,-5.371 -4.359,-9.731 -9.738,-9.731" /><path
         id="path46"
         style="fill:#231f20;fill-opacity:1;fill-rule:nonzero;stroke:none"
         d="m 3070.19,2590.67 c -5.38,0 -9.74,4.36 -9.74,9.73 v 3.25 c 0,5.37 4.36,9.73 9.74,9.73 5.37,0 9.73,-4.36 9.73,-9.73 v -3.25 c 0,-5.37 -4.36,-9.73 -9.73,-9.73" /><path
         id="path48"
         style="fill:#231f20;fill-opacity:1;fill-rule:nonzero;stroke:none"
         d="m 3070.19,2505.63 c -5.38,0 -9.74,4.36 -9.74,9.73 v 6.55 c 0,5.37 4.36,9.73 9.74,9.73 5.37,0 9.73,-4.36 9.73,-9.73 v -6.55 c 0,-5.37 -4.36,-9.73 -9.73,-9.73 z m 0,-85.05 c -5.38,0 -9.74,4.36 -9.74,9.74 v 6.54 c 0,5.37 4.36,9.73 9.74,9.73 5.37,0 9.73,-4.36 9.73,-9.73 v -6.54 c 0,-5.38 -4.36,-9.74 -9.73,-9.74 z m 0,-85.05 c -5.38,0 -9.74,4.36 -9.74,9.73 v 6.54 c 0,5.38 4.36,9.74 9.74,9.74 5.37,0 9.73,-4.36 9.73,-9.74 v -6.54 c 0,-5.37 -4.36,-9.73 -9.73,-9.73 z m 0,-85.04 c -5.38,0 -9.74,4.36 -9.74,9.73 v 6.55 c 0,5.37 4.36,9.73 9.74,9.73 5.37,0 9.73,-4.36 9.73,-9.73 v -6.55 c 0,-5.37 -4.36,-9.73 -9.73,-9.73 z m 0,-85.05 c -5.38,0 -9.74,4.36 -9.74,9.74 v 6.53 c 0,5.38 4.36,9.74 9.74,9.74 5.37,0 9.73,-4.36 9.73,-9.74 v -6.53 c 0,-5.38 -4.36,-9.74 -9.73,-9.74 z m 0,-85.05 c -5.38,0 -9.74,4.36 -9.74,9.73 v 6.54 c 0,5.38 4.36,9.73 9.74,9.73 5.37,0 9.73,-4.35 9.73,-9.73 v -6.54 c 0,-5.37 -4.36,-9.73 -9.73,-9.73 z m 0,-85.05 c -5.38,0 -9.74,4.36 -9.74,9.73 v 6.54 c 0,5.37 4.36,9.74 9.74,9.74 5.37,0 9.73,-4.37 9.73,-9.74 v -6.54 c 0,-5.37 -4.36,-9.73 -9.73,-9.73 z m 0,-85.04 c -5.38,0 -9.74,4.36 -9.74,9.73 v 6.54 c 0,5.38 4.36,9.74 9.74,9.74 5.37,0 9.73,-4.36 9.73,-9.74 v -6.54 c 0,-5.37 -4.36,-9.73 -9.73,-9.73 z m 0,-85.05 c -5.38,0 -9.74,4.36 -9.74,9.73 v 6.54 c 0,5.38 4.36,9.74 9.74,9.74 5.37,0 9.73,-4.36 9.73,-9.74 v -6.54 c 0,-5.37 -4.36,-9.73 -9.73,-9.73 z m 0,-85.06 c -5.38,0 -9.74,4.36 -9.74,9.74 v 6.54 c 0,5.37 4.36,9.73 9.74,9.73 5.37,0 9.73,-4.36 9.73,-9.73 v -6.54 c 0,-5.38 -4.36,-9.74 -9.73,-9.74 z m 0,-85.05 c -5.38,0 -9.74,4.37 -9.74,9.74 v 6.54 c 0,5.38 4.36,9.74 9.74,9.74 5.37,0 9.73,-4.36 9.73,-9.74 v -6.54 c 0,-5.37 -4.36,-9.74 -9.73,-9.74 z m 0,-85.03 c -5.38,0 -9.74,4.36 -9.74,9.73 v 6.54 c 0,5.38 4.36,9.74 9.74,9.74 5.37,0 9.73,-4.36 9.73,-9.74 v -6.54 c 0,-5.37 -4.36,-9.73 -9.73,-9.73 z m 0,-85.06 c -5.38,0 -9.74,4.36 -9.74,9.74 v 6.54 c 0,5.37 4.36,9.73 9.74,9.73 5.37,0 9.73,-4.36 9.73,-9.73 v -6.54 c 0,-5.38 -4.36,-9.74 -9.73,-9.74 z m 0,-85.05 c -5.38,0 -9.74,4.36 -9.74,9.74 v 6.54 c 0,5.37 4.36,9.73 9.74,9.73 5.37,0 9.73,-4.36 9.73,-9.73 v -6.54 c 0,-5.38 -4.36,-9.74 -9.73,-9.74 z m 0,-85.05 c -5.38,0 -9.74,4.36 -9.74,9.74 v 6.53 c 0,5.38 4.36,9.74 9.74,9.74 5.37,0 9.73,-4.36 9.73,-9.74 v -6.53 c 0,-5.38 -4.36,-9.74 -9.73,-9.74 z m 0,-85.03 c -5.38,0 -9.74,4.35 -9.74,9.73 v 6.53 c 0,5.39 4.36,9.74 9.74,9.74 5.37,0 9.73,-4.35 9.73,-9.74 v -6.53 c 0,-5.38 -4.36,-9.73 -9.73,-9.73 z m 0,-85.05 c -5.38,0 -9.74,4.35 -9.74,9.72 v 6.55 c 0,5.37 4.36,9.73 9.74,9.73 5.37,0 9.73,-4.36 9.73,-9.73 v -6.55 c 0,-5.37 -4.36,-9.72 -9.73,-9.72 z m 0,-85.06 c -5.38,0 -9.74,4.36 -9.74,9.73 v 6.55 c 0,5.37 4.36,9.73 9.74,9.73 5.37,0 9.73,-4.36 9.73,-9.73 v -6.55 c 0,-5.37 -4.36,-9.73 -9.73,-9.73 z m 0,-85.048 c -5.38,0 -9.74,4.359 -9.74,9.738 v 6.539 c 0,5.371 4.36,9.721 9.74,9.721 5.37,0 9.73,-4.35 9.73,-9.721 V 984.5 c 0,-5.379 -4.36,-9.738 -9.73,-9.738 z m 0,-85.051 c -5.38,0 -9.74,4.359 -9.74,9.738 V 906 c 0,5.371 4.36,9.73 9.74,9.73 5.37,0 9.73,-4.359 9.73,-9.73 v -6.551 c 0,-5.379 -4.36,-9.738 -9.73,-9.738 z m 0,-85.039 c -5.38,0 -9.74,4.359 -9.74,9.738 v 6.531 c 0,5.379 4.36,9.739 9.74,9.739 5.37,0 9.73,-4.36 9.73,-9.739 v -6.531 c 0,-5.379 -4.36,-9.738 -9.73,-9.738 z m 0,-85.051 c -5.38,0 -9.74,4.359 -9.74,9.731 v 6.539 c 0,5.371 4.36,9.738 9.74,9.738 5.37,0 9.73,-4.367 9.73,-9.738 v -6.539 c 0,-5.372 -4.36,-9.731 -9.73,-9.731 z m 0,-85.062 c -5.38,0 -9.74,4.371 -9.74,9.742 v 6.539 c 0,5.371 4.36,9.742 9.74,9.742 5.37,0 9.73,-4.371 9.73,-9.742 v -6.539 c 0,-5.371 -4.36,-9.742 -9.73,-9.742 z m 0,-85.047 c -5.38,0 -9.74,4.367 -9.74,9.738 v 6.551 c 0,5.371 4.36,9.738 9.74,9.738 5.37,0 9.73,-4.367 9.73,-9.738 v -6.551 c 0,-5.371 -4.36,-9.738 -9.73,-9.738 z m 0,-85.032 c -5.38,0 -9.74,4.36 -9.74,9.731 v 6.539 c 0,5.379 4.36,9.742 9.74,9.742 5.37,0 9.73,-4.363 9.73,-9.742 v -6.539 c 0,-5.371 -4.36,-9.731 -9.73,-9.731 z m 0,-85.05 c -5.38,0 -9.74,4.351 -9.74,9.73 v 6.539 c 0,5.383 4.36,9.731 9.74,9.731 5.37,0 9.73,-4.348 9.73,-9.731 v -6.539 c 0,-5.379 -4.36,-9.73 -9.73,-9.73 z m 0,-85.051 c -5.38,0 -9.74,4.351 -9.74,9.723 v 6.546 c 0,5.383 4.36,9.731 9.74,9.731 5.37,0 9.73,-4.348 9.73,-9.731 v -6.546 c 0,-5.372 -4.36,-9.723 -9.73,-9.723 z m 0,-85.059 c -5.38,0 -9.74,4.36 -9.74,9.739 v 6.543 c 0,5.367 4.36,9.738 9.74,9.738 5.37,0 9.73,-4.371 9.73,-9.738 v -6.543 c 0,-5.379 -4.36,-9.739 -9.73,-9.739" /><path
         id="path50"
         style="fill:#231f20;fill-opacity:1;fill-rule:nonzero;stroke:none"
         d="m 3070.19,127.57 c -5.38,0 -9.74,4.36 -9.74,9.731 v 3.25 c 0,5.371 4.36,9.738 9.74,9.738 5.37,0 9.73,-4.367 9.73,-9.738 v -3.25 c 0,-5.371 -4.36,-9.731 -9.73,-9.731" /><path
         id="path52"
         style="fill:#231f20;fill-opacity:1;fill-rule:nonzero;stroke:none"
         d="m 3456.72,1361.46 h -3.25 c -5.37,0 -9.74,4.36 -9.74,9.73 0,5.38 4.37,9.74 9.74,9.74 h 3.25 c 5.37,0 9.73,-4.36 9.73,-9.74 0,-5.37 -4.36,-9.73 -9.73,-9.73" /><path
         id="path54"
         style="fill:#231f20;fill-opacity:1;fill-rule:nonzero;stroke:none"
         d="m 231.223,1361.46 h -6.543 c -5.371,0 -9.731,4.36 -9.731,9.73 0,5.38 4.36,9.74 9.731,9.74 h 6.543 c 5.371,0 9.734,-4.36 9.734,-9.74 0,-5.37 -4.363,-9.73 -9.734,-9.73 z m 84.961,0 h -6.536 c -5.378,0 -9.738,4.36 -9.738,9.73 0,5.38 4.36,9.74 9.738,9.74 h 6.536 c 5.379,0 9.738,-4.36 9.738,-9.74 0,-5.37 -4.359,-9.73 -9.738,-9.73 z m 84.961,0 h -6.528 c -5.371,0 -9.73,4.36 -9.73,9.73 0,5.38 4.359,9.74 9.73,9.74 h 6.528 c 5.378,0 9.738,-4.36 9.738,-9.74 0,-5.37 -4.36,-9.73 -9.738,-9.73 z m 84.976,0 h -6.535 c -5.379,0 -9.738,4.36 -9.738,9.73 0,5.38 4.359,9.74 9.738,9.74 h 6.535 c 5.375,0 9.738,-4.36 9.738,-9.74 0,-5.37 -4.363,-9.73 -9.738,-9.73 z m 84.969,0 h -6.531 c -5.375,0 -9.735,4.36 -9.735,9.73 0,5.38 4.36,9.74 9.735,9.74 h 6.531 c 5.371,0 9.73,-4.36 9.73,-9.74 0,-5.37 -4.359,-9.73 -9.73,-9.73 z m 84.969,0 h -6.539 c -5.375,0 -9.735,4.36 -9.735,9.73 0,5.38 4.36,9.74 9.735,9.74 h 6.539 c 5.375,0 9.738,-4.36 9.738,-9.74 0,-5.37 -4.363,-9.73 -9.738,-9.73 z m 84.964,0 h -6.527 c -5.375,0 -9.734,4.36 -9.734,9.73 0,5.38 4.359,9.74 9.734,9.74 h 6.527 c 5.372,0 9.735,-4.36 9.735,-9.74 0,-5.37 -4.363,-9.73 -9.735,-9.73 z m 84.977,0 h -6.543 c -5.371,0 -9.73,4.36 -9.73,9.73 0,5.38 4.359,9.74 9.73,9.74 H 826 c 5.371,0 9.73,-4.36 9.73,-9.74 0,-5.37 -4.359,-9.73 -9.73,-9.73 z m 84.961,0 h -6.527 c -5.379,0 -9.735,4.36 -9.735,9.73 0,5.38 4.356,9.74 9.735,9.74 h 6.527 c 5.375,0 9.734,-4.36 9.734,-9.74 0,-5.37 -4.359,-9.73 -9.734,-9.73 z m 84.977,0 h -6.543 c -5.372,0 -9.735,4.36 -9.735,9.73 0,5.38 4.363,9.74 9.735,9.74 h 6.543 c 5.372,0 9.732,-4.36 9.732,-9.74 0,-5.37 -4.36,-9.73 -9.732,-9.73 z m 84.962,0 h -6.54 c -5.38,0 -9.74,4.36 -9.74,9.73 0,5.38 4.36,9.74 9.74,9.74 h 6.54 c 5.37,0 9.73,-4.36 9.73,-9.74 0,-5.37 -4.36,-9.73 -9.73,-9.73 z m 84.97,0 h -6.54 c -5.37,0 -9.73,4.36 -9.73,9.73 0,5.38 4.36,9.74 9.73,9.74 h 6.54 c 5.38,0 9.74,-4.36 9.74,-9.74 0,-5.37 -4.36,-9.73 -9.74,-9.73 z m 84.97,0 h -6.54 c -5.38,0 -9.74,4.36 -9.74,9.73 0,5.38 4.36,9.74 9.74,9.74 h 6.54 c 5.37,0 9.73,-4.36 9.73,-9.74 0,-5.37 -4.36,-9.73 -9.73,-9.73 z m 84.96,0 h -6.53 c -5.37,0 -9.74,4.36 -9.74,9.73 0,5.38 4.37,9.74 9.74,9.74 h 6.53 c 5.38,0 9.74,-4.36 9.74,-9.74 0,-5.37 -4.36,-9.73 -9.74,-9.73 z m 84.98,0 h -6.55 c -5.37,0 -9.73,4.36 -9.73,9.73 0,5.38 4.36,9.74 9.73,9.74 h 6.55 c 5.37,0 9.73,-4.36 9.73,-9.74 0,-5.37 -4.36,-9.73 -9.73,-9.73 z m 84.96,0 h -6.53 c -5.37,0 -9.73,4.36 -9.73,9.73 0,5.38 4.36,9.74 9.73,9.74 h 6.53 c 5.37,0 9.73,-4.36 9.73,-9.74 0,-5.37 -4.36,-9.73 -9.73,-9.73 z m 84.97,0 h -6.54 c -5.37,0 -9.73,4.36 -9.73,9.73 0,5.38 4.36,9.74 9.73,9.74 h 6.54 c 5.38,0 9.74,-4.36 9.74,-9.74 0,-5.37 -4.36,-9.73 -9.74,-9.73 z m 84.96,0 h -6.53 c -5.37,0 -9.73,4.36 -9.73,9.73 0,5.38 4.36,9.74 9.73,9.74 h 6.53 c 5.38,0 9.74,-4.36 9.74,-9.74 0,-5.37 -4.36,-9.73 -9.74,-9.73 z m 84.98,0 h -6.54 c -5.38,0 -9.74,4.36 -9.74,9.73 0,5.38 4.36,9.74 9.74,9.74 h 6.54 c 5.37,0 9.73,-4.36 9.73,-9.74 0,-5.37 -4.36,-9.73 -9.73,-9.73 z m 84.96,0 h -6.53 c -5.38,0 -9.74,4.36 -9.74,9.73 0,5.38 4.36,9.74 9.74,9.74 h 6.53 c 5.38,0 9.74,-4.36 9.74,-9.74 0,-5.37 -4.36,-9.73 -9.74,-9.73 z m 84.98,0 h -6.54 c -5.37,0 -9.74,4.36 -9.74,9.73 0,5.38 4.37,9.74 9.74,9.74 h 6.54 c 5.37,0 9.74,-4.36 9.74,-9.74 0,-5.37 -4.37,-9.73 -9.74,-9.73 z m 84.96,0 h -6.54 c -5.37,0 -9.74,4.36 -9.74,9.73 0,5.38 4.37,9.74 9.74,9.74 h 6.54 c 5.37,0 9.74,-4.36 9.74,-9.74 0,-5.37 -4.37,-9.73 -9.74,-9.73 z m 84.96,0 h -6.52 c -5.38,0 -9.74,4.36 -9.74,9.73 0,5.38 4.36,9.74 9.74,9.74 h 6.52 c 5.37,0 9.74,-4.36 9.74,-9.74 0,-5.37 -4.37,-9.73 -9.74,-9.73 z m 84.98,0 h -6.54 c -5.38,0 -9.74,4.36 -9.74,9.73 0,5.38 4.36,9.74 9.74,9.74 h 6.54 c 5.37,0 9.73,-4.36 9.73,-9.74 0,-5.37 -4.36,-9.73 -9.73,-9.73 z m 84.96,0 h -6.53 c -5.37,0 -9.74,4.36 -9.74,9.73 0,5.38 4.37,9.74 9.74,9.74 h 6.53 c 5.37,0 9.74,-4.36 9.74,-9.74 0,-5.37 -4.37,-9.73 -9.74,-9.73 z m 84.97,0 h -6.54 c -5.37,0 -9.73,4.36 -9.73,9.73 0,5.38 4.36,9.74 9.73,9.74 h 6.54 c 5.37,0 9.74,-4.36 9.74,-9.74 0,-5.37 -4.37,-9.73 -9.74,-9.73 z m 84.96,0 h -6.52 c -5.37,0 -9.74,4.36 -9.74,9.73 0,5.38 4.37,9.74 9.74,9.74 h 6.52 c 5.39,0 9.74,-4.36 9.74,-9.74 0,-5.37 -4.35,-9.73 -9.74,-9.73 z m 84.98,0 h -6.54 c -5.37,0 -9.73,4.36 -9.73,9.73 0,5.38 4.36,9.74 9.73,9.74 h 6.54 c 5.38,0 9.74,-4.36 9.74,-9.74 0,-5.37 -4.36,-9.73 -9.74,-9.73 z m 84.97,0 h -6.55 c -5.37,0 -9.73,4.36 -9.73,9.73 0,5.38 4.36,9.74 9.73,9.74 h 6.55 c 5.37,0 9.73,-4.36 9.73,-9.74 0,-5.37 -4.36,-9.73 -9.73,-9.73 z m 84.96,0 h -6.53 c -5.38,0 -9.73,4.36 -9.73,9.73 0,5.38 4.35,9.74 9.73,9.74 h 6.53 c 5.37,0 9.73,-4.36 9.73,-9.74 0,-5.37 -4.36,-9.73 -9.73,-9.73 z m 84.98,0 h -6.55 c -5.38,0 -9.73,4.36 -9.73,9.73 0,5.38 4.35,9.74 9.73,9.74 h 6.55 c 5.37,0 9.72,-4.36 9.72,-9.74 0,-5.37 -4.35,-9.73 -9.72,-9.73 z m 84.96,0 h -6.53 c -5.38,0 -9.74,4.36 -9.74,9.73 0,5.38 4.36,9.74 9.74,9.74 h 6.53 c 5.37,0 9.73,-4.36 9.73,-9.74 0,-5.37 -4.36,-9.73 -9.73,-9.73 z m 84.97,0 h -6.54 c -5.38,0 -9.73,4.36 -9.73,9.73 0,5.38 4.35,9.74 9.73,9.74 h 6.54 c 5.38,0 9.74,-4.36 9.74,-9.74 0,-5.37 -4.36,-9.73 -9.74,-9.73 z m 84.96,0 h -6.52 c -5.37,0 -9.74,4.36 -9.74,9.73 0,5.38 4.37,9.74 9.74,9.74 h 6.52 c 5.38,0 9.74,-4.36 9.74,-9.74 0,-5.37 -4.36,-9.73 -9.74,-9.73 z m 84.98,0 h -6.54 c -5.37,0 -9.74,4.36 -9.74,9.73 0,5.38 4.37,9.74 9.74,9.74 h 6.54 c 5.37,0 9.74,-4.36 9.74,-9.74 0,-5.37 -4.37,-9.73 -9.74,-9.73 z m 84.96,0 h -6.54 c -5.37,0 -9.74,4.36 -9.74,9.73 0,5.38 4.37,9.74 9.74,9.74 h 6.54 c 5.37,0 9.74,-4.36 9.74,-9.74 0,-5.37 -4.37,-9.73 -9.74,-9.73 z m 84.97,0 h -6.53 c -5.38,0 -9.74,4.36 -9.74,9.73 0,5.38 4.36,9.74 9.74,9.74 h 6.53 c 5.38,0 9.74,-4.36 9.74,-9.74 0,-5.37 -4.36,-9.73 -9.74,-9.73 z m 84.97,0 h -6.54 c -5.37,0 -9.74,4.36 -9.74,9.73 0,5.38 4.37,9.74 9.74,9.74 h 6.54 c 5.37,0 9.73,-4.36 9.73,-9.74 0,-5.37 -4.36,-9.73 -9.73,-9.73" /><path
         id="path56"
         style="fill:#231f20;fill-opacity:1;fill-rule:nonzero;stroke:none"
         d="m 146.258,1361.46 h -3.242 c -5.375,0 -9.735,4.36 -9.735,9.73 0,5.38 4.36,9.74 9.735,9.74 h 3.242 c 5.379,0 9.738,-4.36 9.738,-9.74 0,-5.37 -4.359,-9.73 -9.738,-9.73" /><path
         id="path58"
         style="fill:#231f20;fill-opacity:1;fill-rule:nonzero;stroke:none"
         d="m 3445.45,2205.29 h -3.25 c -5.37,0 -9.73,4.36 -9.73,9.73 0,5.38 4.36,9.74 9.73,9.74 h 3.25 c 5.37,0 9.74,-4.36 9.74,-9.74 0,-5.37 -4.37,-9.73 -9.74,-9.73" /><path
         id="path60"
         style="fill:#231f20;fill-opacity:1;fill-rule:nonzero;stroke:none"
         d="m 230.93,2205.29 h -6.512 c -5.375,0 -9.738,4.36 -9.738,9.73 0,5.38 4.363,9.74 9.738,9.74 h 6.512 c 5.379,0 9.738,-4.36 9.738,-9.74 0,-5.37 -4.359,-9.73 -9.738,-9.73 z m 84.675,0 h -6.503 c -5.379,0 -9.739,4.36 -9.739,9.73 0,5.38 4.36,9.74 9.739,9.74 h 6.503 c 5.372,0 9.731,-4.36 9.731,-9.74 0,-5.37 -4.359,-9.73 -9.731,-9.73 z m 84.68,0 h -6.512 c -5.375,0 -9.738,4.36 -9.738,9.73 0,5.38 4.363,9.74 9.738,9.74 h 6.512 c 5.371,0 9.735,-4.36 9.735,-9.74 0,-5.37 -4.364,-9.73 -9.735,-9.73 z m 84.684,0 h -6.512 c -5.379,0 -9.738,4.36 -9.738,9.73 0,5.38 4.359,9.74 9.738,9.74 h 6.512 c 5.375,0 9.738,-4.36 9.738,-9.74 0,-5.37 -4.363,-9.73 -9.738,-9.73 z m 84.672,0 h -6.516 c -5.371,0 -9.734,4.36 -9.734,9.73 0,5.38 4.363,9.74 9.734,9.74 h 6.516 c 5.371,0 9.734,-4.36 9.734,-9.74 0,-5.37 -4.363,-9.73 -9.734,-9.73 z m 84.683,0 h -6.511 c -5.379,0 -9.739,4.36 -9.739,9.73 0,5.38 4.36,9.74 9.739,9.74 h 6.511 c 5.375,0 9.731,-4.36 9.731,-9.74 0,-5.37 -4.356,-9.73 -9.731,-9.73 z m 84.668,0 h -6.5 c -5.375,0 -9.734,4.36 -9.734,9.73 0,5.38 4.359,9.74 9.734,9.74 h 6.5 c 5.375,0 9.738,-4.36 9.738,-9.74 0,-5.37 -4.363,-9.73 -9.738,-9.73 z m 84.688,0 h -6.52 c -5.367,0 -9.73,4.36 -9.73,9.73 0,5.38 4.363,9.74 9.73,9.74 h 6.52 c 5.371,0 9.73,-4.36 9.73,-9.74 0,-5.37 -4.359,-9.73 -9.73,-9.73 z m 84.683,0 h -6.515 c -5.375,0 -9.735,4.36 -9.735,9.73 0,5.38 4.36,9.74 9.735,9.74 h 6.515 c 5.375,0 9.735,-4.36 9.735,-9.74 0,-5.37 -4.36,-9.73 -9.735,-9.73 z m 84.672,0 h -6.519 c -5.371,0 -9.731,4.36 -9.731,9.73 0,5.38 4.36,9.74 9.731,9.74 h 6.519 c 5.371,0 9.735,-4.36 9.735,-9.74 0,-5.37 -4.364,-9.73 -9.735,-9.73 z m 84.685,0 h -6.52 c -5.37,0 -9.73,4.36 -9.73,9.73 0,5.38 4.36,9.74 9.73,9.74 h 6.52 c 5.37,0 9.73,-4.36 9.73,-9.74 0,-5.37 -4.36,-9.73 -9.73,-9.73 z m 84.67,0 h -6.5 c -5.38,0 -9.74,4.36 -9.74,9.73 0,5.38 4.36,9.74 9.74,9.74 h 6.5 c 5.37,0 9.73,-4.36 9.73,-9.74 0,-5.37 -4.36,-9.73 -9.73,-9.73 z m 84.68,0 h -6.51 c -5.38,0 -9.74,4.36 -9.74,9.73 0,5.38 4.36,9.74 9.74,9.74 h 6.51 c 5.38,0 9.74,-4.36 9.74,-9.74 0,-5.37 -4.36,-9.73 -9.74,-9.73 z m 84.69,0 h -6.52 c -5.37,0 -9.73,4.36 -9.73,9.73 0,5.38 4.36,9.74 9.73,9.74 h 6.52 c 5.37,0 9.73,-4.36 9.73,-9.74 0,-5.37 -4.36,-9.73 -9.73,-9.73 z m 84.66,0 h -6.51 c -5.38,0 -9.74,4.36 -9.74,9.73 0,5.38 4.36,9.74 9.74,9.74 h 6.51 c 5.38,0 9.74,-4.36 9.74,-9.74 0,-5.37 -4.36,-9.73 -9.74,-9.73 z m 84.69,0 h -6.52 c -5.37,0 -9.73,4.36 -9.73,9.73 0,5.38 4.36,9.74 9.73,9.74 h 6.52 c 5.37,0 9.73,-4.36 9.73,-9.74 0,-5.37 -4.36,-9.73 -9.73,-9.73 z m 84.68,0 h -6.51 c -5.37,0 -9.74,4.36 -9.74,9.73 0,5.38 4.37,9.74 9.74,9.74 h 6.51 c 5.38,0 9.74,-4.36 9.74,-9.74 0,-5.37 -4.36,-9.73 -9.74,-9.73 z m 84.67,0 h -6.51 c -5.38,0 -9.74,4.36 -9.74,9.73 0,5.38 4.36,9.74 9.74,9.74 h 6.51 c 5.38,0 9.74,-4.36 9.74,-9.74 0,-5.37 -4.36,-9.73 -9.74,-9.73 z m 84.69,0 h -6.52 c -5.37,0 -9.73,4.36 -9.73,9.73 0,5.38 4.36,9.74 9.73,9.74 h 6.52 c 5.37,0 9.73,-4.36 9.73,-9.74 0,-5.37 -4.36,-9.73 -9.73,-9.73 z m 84.67,0 h -6.52 c -5.37,0 -9.73,4.36 -9.73,9.73 0,5.38 4.36,9.74 9.73,9.74 h 6.52 c 5.37,0 9.73,-4.36 9.73,-9.74 0,-5.37 -4.36,-9.73 -9.73,-9.73 z m 84.69,0 h -6.52 c -5.38,0 -9.73,4.36 -9.73,9.73 0,5.38 4.35,9.74 9.73,9.74 h 6.52 c 5.37,0 9.73,-4.36 9.73,-9.74 0,-5.37 -4.36,-9.73 -9.73,-9.73 z m 84.66,0 h -6.5 c -5.37,0 -9.74,4.36 -9.74,9.73 0,5.38 4.37,9.74 9.74,9.74 h 6.5 c 5.37,0 9.74,-4.36 9.74,-9.74 0,-5.37 -4.37,-9.73 -9.74,-9.73 z m 84.69,0 h -6.51 c -5.38,0 -9.74,4.36 -9.74,9.73 0,5.38 4.36,9.74 9.74,9.74 h 6.51 c 5.37,0 9.73,-4.36 9.73,-9.74 0,-5.37 -4.36,-9.73 -9.73,-9.73 z m 84.68,0 h -6.51 c -5.38,0 -9.74,4.36 -9.74,9.73 0,5.38 4.36,9.74 9.74,9.74 h 6.51 c 5.38,0 9.74,-4.36 9.74,-9.74 0,-5.37 -4.36,-9.73 -9.74,-9.73 z m 84.68,0 h -6.53 c -5.37,0 -9.72,4.36 -9.72,9.73 0,5.38 4.35,9.74 9.72,9.74 h 6.53 c 5.37,0 9.72,-4.36 9.72,-9.74 0,-5.37 -4.35,-9.73 -9.72,-9.73 z m 84.67,0 h -6.51 c -5.37,0 -9.74,4.36 -9.74,9.73 0,5.38 4.37,9.74 9.74,9.74 h 6.51 c 5.39,0 9.74,-4.36 9.74,-9.74 0,-5.37 -4.35,-9.73 -9.74,-9.73 z m 84.67,0 h -6.49 c -5.38,0 -9.74,4.36 -9.74,9.73 0,5.38 4.36,9.74 9.74,9.74 h 6.49 c 5.38,0 9.74,-4.36 9.74,-9.74 0,-5.37 -4.36,-9.73 -9.74,-9.73 z m 84.69,0 h -6.51 c -5.38,0 -9.74,4.36 -9.74,9.73 0,5.38 4.36,9.74 9.74,9.74 h 6.51 c 5.37,0 9.74,-4.36 9.74,-9.74 0,-5.37 -4.37,-9.73 -9.74,-9.73 z m 84.69,0 h -6.52 c -5.38,0 -9.73,4.36 -9.73,9.73 0,5.38 4.35,9.74 9.73,9.74 h 6.52 c 5.37,0 9.73,-4.36 9.73,-9.74 0,-5.37 -4.36,-9.73 -9.73,-9.73 z m 84.67,0 h -6.52 c -5.37,0 -9.73,4.36 -9.73,9.73 0,5.38 4.36,9.74 9.73,9.74 h 6.52 c 5.37,0 9.73,-4.36 9.73,-9.74 0,-5.37 -4.36,-9.73 -9.73,-9.73 z m 84.68,0 h -6.52 c -5.37,0 -9.73,4.36 -9.73,9.73 0,5.38 4.36,9.74 9.73,9.74 h 6.52 c 5.37,0 9.73,-4.36 9.73,-9.74 0,-5.37 -4.36,-9.73 -9.73,-9.73 z m 84.67,0 h -6.5 c -5.37,0 -9.74,4.36 -9.74,9.73 0,5.38 4.37,9.74 9.74,9.74 h 6.5 c 5.37,0 9.74,-4.36 9.74,-9.74 0,-5.37 -4.37,-9.73 -9.74,-9.73 z m 84.69,0 h -6.53 c -5.37,0 -9.72,4.36 -9.72,9.73 0,5.38 4.35,9.74 9.72,9.74 h 6.53 c 5.37,0 9.72,-4.36 9.72,-9.74 0,-5.37 -4.35,-9.73 -9.72,-9.73 z m 84.68,0 h -6.52 c -5.37,0 -9.73,4.36 -9.73,9.73 0,5.38 4.36,9.74 9.73,9.74 h 6.52 c 5.37,0 9.73,-4.36 9.73,-9.74 0,-5.37 -4.36,-9.73 -9.73,-9.73 z m 84.66,0 h -6.51 c -5.37,0 -9.74,4.36 -9.74,9.73 0,5.38 4.37,9.74 9.74,9.74 h 6.51 c 5.38,0 9.74,-4.36 9.74,-9.74 0,-5.37 -4.36,-9.73 -9.74,-9.73 z m 84.69,0 h -6.51 c -5.37,0 -9.74,4.36 -9.74,9.73 0,5.38 4.37,9.74 9.74,9.74 h 6.51 c 5.37,0 9.74,-4.36 9.74,-9.74 0,-5.37 -4.37,-9.73 -9.74,-9.73 z m 84.67,0 h -6.49 c -5.39,0 -9.74,4.36 -9.74,9.73 0,5.38 4.35,9.74 9.74,9.74 h 6.49 c 5.38,0 9.74,-4.36 9.74,-9.74 0,-5.37 -4.36,-9.73 -9.74,-9.73 z m 84.69,0 h -6.52 c -5.38,0 -9.73,4.36 -9.73,9.73 0,5.38 4.35,9.74 9.73,9.74 h 6.52 c 5.37,0 9.73,-4.36 9.73,-9.74 0,-5.37 -4.36,-9.73 -9.73,-9.73" /><path
         id="path62"
         style="fill:#231f20;fill-opacity:1;fill-rule:nonzero;stroke:none"
         d="m 146.258,2205.29 h -3.242 c -5.375,0 -9.735,4.36 -9.735,9.73 0,5.38 4.36,9.74 9.735,9.74 h 3.242 c 5.379,0 9.738,-4.36 9.738,-9.74 0,-5.37 -4.359,-9.73 -9.738,-9.73" /><path
         id="path64"
         style="fill:#231f20;fill-opacity:1;fill-rule:nonzero;stroke:none"
         d="m 3456.72,516.961 h -3.25 c -5.37,0 -9.74,4.348 -9.74,9.719 0,5.379 4.37,9.742 9.74,9.742 h 3.25 c 5.37,0 9.73,-4.363 9.73,-9.742 0,-5.371 -4.36,-9.719 -9.73,-9.719" /><path
         id="path66"
         style="fill:#231f20;fill-opacity:1;fill-rule:nonzero;stroke:none"
         d="m 231.223,516.961 h -6.543 c -5.371,0 -9.731,4.348 -9.731,9.719 0,5.379 4.36,9.742 9.731,9.742 h 6.543 c 5.371,0 9.734,-4.363 9.734,-9.742 0,-5.371 -4.363,-9.719 -9.734,-9.719 z m 84.961,0 h -6.536 c -5.378,0 -9.738,4.348 -9.738,9.719 0,5.379 4.36,9.742 9.738,9.742 h 6.536 c 5.379,0 9.738,-4.363 9.738,-9.742 0,-5.371 -4.359,-9.719 -9.738,-9.719 z m 84.961,0 h -6.528 c -5.371,0 -9.73,4.348 -9.73,9.719 0,5.379 4.359,9.742 9.73,9.742 h 6.528 c 5.378,0 9.738,-4.363 9.738,-9.742 0,-5.371 -4.36,-9.719 -9.738,-9.719 z m 84.976,0 h -6.535 c -5.379,0 -9.738,4.348 -9.738,9.719 0,5.379 4.359,9.742 9.738,9.742 h 6.535 c 5.375,0 9.738,-4.363 9.738,-9.742 0,-5.371 -4.363,-9.719 -9.738,-9.719 z m 84.969,0 h -6.531 c -5.375,0 -9.735,4.348 -9.735,9.719 0,5.379 4.36,9.742 9.735,9.742 h 6.531 c 5.371,0 9.73,-4.363 9.73,-9.742 0,-5.371 -4.359,-9.719 -9.73,-9.719 z m 84.969,0 h -6.539 c -5.375,0 -9.735,4.348 -9.735,9.719 0,5.379 4.36,9.742 9.735,9.742 h 6.539 c 5.375,0 9.738,-4.363 9.738,-9.742 0,-5.371 -4.363,-9.719 -9.738,-9.719 z m 84.964,0 h -6.527 c -5.375,0 -9.734,4.348 -9.734,9.719 0,5.379 4.359,9.742 9.734,9.742 h 6.527 c 5.372,0 9.735,-4.363 9.735,-9.742 0,-5.371 -4.363,-9.719 -9.735,-9.719 z m 84.977,0 h -6.543 c -5.371,0 -9.73,4.348 -9.73,9.719 0,5.379 4.359,9.742 9.73,9.742 H 826 c 5.371,0 9.73,-4.363 9.73,-9.742 0,-5.371 -4.359,-9.719 -9.73,-9.719 z m 84.961,0 h -6.527 c -5.379,0 -9.735,4.348 -9.735,9.719 0,5.379 4.356,9.742 9.735,9.742 h 6.527 c 5.375,0 9.734,-4.363 9.734,-9.742 0,-5.371 -4.359,-9.719 -9.734,-9.719 z m 84.977,0 h -6.543 c -5.372,0 -9.735,4.348 -9.735,9.719 0,5.379 4.363,9.742 9.735,9.742 h 6.543 c 5.372,0 9.732,-4.363 9.732,-9.742 0,-5.371 -4.36,-9.719 -9.732,-9.719 z m 84.962,0 h -6.54 c -5.38,0 -9.74,4.348 -9.74,9.719 0,5.379 4.36,9.742 9.74,9.742 h 6.54 c 5.37,0 9.73,-4.363 9.73,-9.742 0,-5.371 -4.36,-9.719 -9.73,-9.719 z m 84.97,0 h -6.54 c -5.37,0 -9.73,4.348 -9.73,9.719 0,5.379 4.36,9.742 9.73,9.742 h 6.54 c 5.38,0 9.74,-4.363 9.74,-9.742 0,-5.371 -4.36,-9.719 -9.74,-9.719 z m 84.97,0 h -6.54 c -5.38,0 -9.74,4.348 -9.74,9.719 0,5.379 4.36,9.742 9.74,9.742 h 6.54 c 5.37,0 9.73,-4.363 9.73,-9.742 0,-5.371 -4.36,-9.719 -9.73,-9.719 z m 84.96,0 h -6.53 c -5.37,0 -9.74,4.348 -9.74,9.719 0,5.379 4.37,9.742 9.74,9.742 h 6.53 c 5.38,0 9.74,-4.363 9.74,-9.742 0,-5.371 -4.36,-9.719 -9.74,-9.719 z m 84.98,0 h -6.55 c -5.37,0 -9.73,4.348 -9.73,9.719 0,5.379 4.36,9.742 9.73,9.742 h 6.55 c 5.37,0 9.73,-4.363 9.73,-9.742 0,-5.371 -4.36,-9.719 -9.73,-9.719 z m 84.96,0 h -6.53 c -5.37,0 -9.73,4.348 -9.73,9.719 0,5.379 4.36,9.742 9.73,9.742 h 6.53 c 5.37,0 9.73,-4.363 9.73,-9.742 0,-5.371 -4.36,-9.719 -9.73,-9.719 z m 84.97,0 h -6.54 c -5.37,0 -9.73,4.348 -9.73,9.719 0,5.379 4.36,9.742 9.73,9.742 h 6.54 c 5.38,0 9.74,-4.363 9.74,-9.742 0,-5.371 -4.36,-9.719 -9.74,-9.719 z m 84.96,0 h -6.53 c -5.37,0 -9.73,4.348 -9.73,9.719 0,5.379 4.36,9.742 9.73,9.742 h 6.53 c 5.38,0 9.74,-4.363 9.74,-9.742 0,-5.371 -4.36,-9.719 -9.74,-9.719 z m 84.98,0 h -6.54 c -5.38,0 -9.74,4.348 -9.74,9.719 0,5.379 4.36,9.742 9.74,9.742 h 6.54 c 5.37,0 9.73,-4.363 9.73,-9.742 0,-5.371 -4.36,-9.719 -9.73,-9.719 z m 84.96,0 h -6.53 c -5.38,0 -9.74,4.348 -9.74,9.719 0,5.379 4.36,9.742 9.74,9.742 h 6.53 c 5.38,0 9.74,-4.363 9.74,-9.742 0,-5.371 -4.36,-9.719 -9.74,-9.719 z m 84.98,0 h -6.54 c -5.37,0 -9.74,4.348 -9.74,9.719 0,5.379 4.37,9.742 9.74,9.742 h 6.54 c 5.37,0 9.74,-4.363 9.74,-9.742 0,-5.371 -4.37,-9.719 -9.74,-9.719 z m 84.96,0 h -6.54 c -5.37,0 -9.74,4.348 -9.74,9.719 0,5.379 4.37,9.742 9.74,9.742 h 6.54 c 5.37,0 9.74,-4.363 9.74,-9.742 0,-5.371 -4.37,-9.719 -9.74,-9.719 z m 84.96,0 h -6.52 c -5.38,0 -9.74,4.348 -9.74,9.719 0,5.379 4.36,9.742 9.74,9.742 h 6.52 c 5.37,0 9.74,-4.363 9.74,-9.742 0,-5.371 -4.37,-9.719 -9.74,-9.719 z m 84.98,0 h -6.54 c -5.38,0 -9.74,4.348 -9.74,9.719 0,5.379 4.36,9.742 9.74,9.742 h 6.54 c 5.37,0 9.73,-4.363 9.73,-9.742 0,-5.371 -4.36,-9.719 -9.73,-9.719 z m 84.96,0 h -6.53 c -5.37,0 -9.74,4.348 -9.74,9.719 0,5.379 4.37,9.742 9.74,9.742 h 6.53 c 5.37,0 9.74,-4.363 9.74,-9.742 0,-5.371 -4.37,-9.719 -9.74,-9.719 z m 84.97,0 h -6.54 c -5.37,0 -9.73,4.348 -9.73,9.719 0,5.379 4.36,9.742 9.73,9.742 h 6.54 c 5.37,0 9.74,-4.363 9.74,-9.742 0,-5.371 -4.37,-9.719 -9.74,-9.719 z m 84.96,0 h -6.52 c -5.37,0 -9.74,4.348 -9.74,9.719 0,5.379 4.37,9.742 9.74,9.742 h 6.52 c 5.39,0 9.74,-4.363 9.74,-9.742 0,-5.371 -4.35,-9.719 -9.74,-9.719 z m 84.98,0 h -6.54 c -5.37,0 -9.73,4.348 -9.73,9.719 0,5.379 4.36,9.742 9.73,9.742 h 6.54 c 5.38,0 9.74,-4.363 9.74,-9.742 0,-5.371 -4.36,-9.719 -9.74,-9.719 z m 84.97,0 h -6.55 c -5.37,0 -9.73,4.348 -9.73,9.719 0,5.379 4.36,9.742 9.73,9.742 h 6.55 c 5.37,0 9.73,-4.363 9.73,-9.742 0,-5.371 -4.36,-9.719 -9.73,-9.719 z m 84.96,0 h -6.53 c -5.38,0 -9.73,4.348 -9.73,9.719 0,5.379 4.35,9.742 9.73,9.742 h 6.53 c 5.37,0 9.73,-4.363 9.73,-9.742 0,-5.371 -4.36,-9.719 -9.73,-9.719 z m 84.98,0 h -6.55 c -5.38,0 -9.73,4.348 -9.73,9.719 0,5.379 4.35,9.742 9.73,9.742 h 6.55 c 5.37,0 9.72,-4.363 9.72,-9.742 0,-5.371 -4.35,-9.719 -9.72,-9.719 z m 84.96,0 h -6.53 c -5.38,0 -9.74,4.348 -9.74,9.719 0,5.379 4.36,9.742 9.74,9.742 h 6.53 c 5.37,0 9.73,-4.363 9.73,-9.742 0,-5.371 -4.36,-9.719 -9.73,-9.719 z m 84.97,0 h -6.54 c -5.38,0 -9.73,4.348 -9.73,9.719 0,5.379 4.35,9.742 9.73,9.742 h 6.54 c 5.38,0 9.74,-4.363 9.74,-9.742 0,-5.371 -4.36,-9.719 -9.74,-9.719 z m 84.96,0 h -6.52 c -5.37,0 -9.74,4.348 -9.74,9.719 0,5.379 4.37,9.742 9.74,9.742 h 6.52 c 5.38,0 9.74,-4.363 9.74,-9.742 0,-5.371 -4.36,-9.719 -9.74,-9.719 z m 84.98,0 h -6.54 c -5.37,0 -9.74,4.348 -9.74,9.719 0,5.379 4.37,9.742 9.74,9.742 h 6.54 c 5.37,0 9.74,-4.363 9.74,-9.742 0,-5.371 -4.37,-9.719 -9.74,-9.719 z m 84.96,0 h -6.54 c -5.37,0 -9.74,4.348 -9.74,9.719 0,5.379 4.37,9.742 9.74,9.742 h 6.54 c 5.37,0 9.74,-4.363 9.74,-9.742 0,-5.371 -4.37,-9.719 -9.74,-9.719 z m 84.97,0 h -6.53 c -5.38,0 -9.74,4.348 -9.74,9.719 0,5.379 4.36,9.742 9.74,9.742 h 6.53 c 5.38,0 9.74,-4.363 9.74,-9.742 0,-5.371 -4.36,-9.719 -9.74,-9.719 z m 84.97,0 h -6.54 c -5.37,0 -9.74,4.348 -9.74,9.719 0,5.379 4.37,9.742 9.74,9.742 h 6.54 c 5.37,0 9.73,-4.363 9.73,-9.742 0,-5.371 -4.36,-9.719 -9.73,-9.719" /><path
         id="path68"
         style="fill:#231f20;fill-opacity:1;fill-rule:nonzero;stroke:none"
         d="m 146.258,516.961 h -3.242 c -5.375,0 -9.735,4.348 -9.735,9.719 0,5.379 4.36,9.742 9.735,9.742 h 3.242 c 5.379,0 9.738,-4.363 9.738,-9.742 0,-5.371 -4.359,-9.719 -9.738,-9.719" /><path
         id="path70"
         style="fill:#231f20;fill-opacity:1;fill-rule:nonzero;stroke:none"
         d="m 536.152,94.6992 c -2.496,0 -4.98,0.9492 -6.882,2.8516 -3.801,3.8012 -3.801,9.9612 0,13.7692 l 2533.5,2533.51 c 3.81,3.81 9.96,3.81 13.77,0 3.8,-3.8 3.8,-9.96 0,-13.76 L 543.035,97.5508 c -1.902,-1.9024 -4.383,-2.8516 -6.883,-2.8516" /><path
         id="path72"
         style="fill:#231f20;fill-opacity:1;fill-rule:nonzero;stroke:none"
         d="m 3069.65,94.6992 c -2.5,0 -4.98,0.9492 -6.88,2.8516 L 529.27,2631.07 c -3.801,3.8 -3.801,9.96 0,13.76 3.8,3.81 9.96,3.81 13.765,0 L 3076.54,111.32 c 3.8,-3.808 3.8,-9.968 0,-13.7692 -1.91,-1.9024 -4.39,-2.8516 -6.89,-2.8516" /><path
         id="path74"
         style="fill:#231f20;fill-opacity:1;fill-rule:nonzero;stroke:none"
         d="m 125.281,113.52 c -1.644,0 -3.32,0.421 -4.851,1.312 -4.657,2.68 -6.25,8.637 -3.567,13.297 L 1567.81,2641.22 c 2.67,4.62 8.6,6.27 13.29,3.56 4.66,-2.69 6.25,-8.64 3.57,-13.3 L 133.723,118.391 c -1.801,-3.11 -5.067,-4.871 -8.442,-4.871" /></g></g></svg>